<?xml version="1.0"?>
<svg width="33.072918" height="13.229165" xmlns="http://www.w3.org/2000/svg" xmlns:svg="http://www.w3.org/2000/svg">
 <defs>
  <clipPath id="clipPath3194">
   <path d="m-213.001633,4283.69344l612,0l0,-792l-612,0l0,792z" id="path3196"/>
  </clipPath>
 </defs>
 <metadata id="metadata5">image/svg+xml</metadata>
 <g class="layer">
  <title>Layer 1</title>
  <g id="layer1">
   <g id="layer1-3" transform="matrix(0.184485 0 0 0.184485 -36.8939 218.801)">
    <g id="g3190" transform="matrix(0.439115 0 0 -0.439115 186.301 627.596)">
     <g clip-path="url(#clipPath3194)" id="g3192">
      <g fill="#0f4d92" id="g3817">
       <g fill="#0f4d92" id="g3198" transform="translate(88.5767 565.25)">
        <path d="m0,3502.904053c-3.278,0 -2.101,-6.139 -3.278,-11.765c-0.628,-2.996 6.541,0.326 9.232,4.73c0.547,0.898 -5.954,7.035 -5.954,7.035" fill="#0f4d92" fill-rule="nonzero" id="path3200"/>
       </g>
       <g fill="#0f4d92" id="g3202" transform="translate(85.2983 544.126)">
        <path d="m0,3502.904053c0,-8.152 -2.216,-13 -7.468,-21.161c-5.252,-8.16 -10.313,-12.488 -13.064,-16.304c-2.751,-3.816 -2.062,-4.856 1.719,-5.203c3.781,-0.348 6.018,-2.557 9.535,1.501c3.517,4.059 13.62,16.75 16.793,24.689c3.173,7.939 4.271,11.968 5.301,17.171c1.03,5.204 -15.127,-0.693 -15.127,-0.693" fill="#0f4d92" fill-rule="nonzero" id="path3204"/>
       </g>
       <g fill="#0f4d92" id="g3206" transform="translate(149.249 571.263)">
        <path d="m0,3502.904053c3.235,2.521 6.237,-8.13 6.237,-10.345c0,-2.214 -11.898,-5.426 -18.411,-7.261c-6.513,-1.835 -29.464,-8.027 -38.961,-8.837c-7.695,-0.657 -13.302,-2.414 -16.885,-3.287c0,0 -3.094,-1.302 -7.219,-4.337c-6.414,-4.719 -14.783,-4.509 -8.939,2.082c5.844,6.59 0.344,4.163 8.939,8.499c8.594,4.336 18.221,7.886 20.282,10.101c0,0 8.328,5.723 17.083,4.109c3.064,-0.565 32.496,5.085 37.874,9.276" fill="#0f4d92" fill-rule="nonzero" id="path3208"/>
       </g>
      </g>
      <g id="g3226" transform="translate(155.39 577.024)">
       <path d="m0,3502.904053c7.699,6.348 -9.283,-1.388 -15.205,18.443c0,0 -3.223,12.488 -19.946,14.165c-11.886,1.193 -22.605,-6.07 -24.668,-7.631c-12.72877,-11.03531 -14.61579,-34.9578 -0.009,-44.983c0,0 2.072,2.834 18.573,4.396c16.502,1.561 25.615,5.488 30.254,7.284c6.6,2.556 3.227,1.917 11.001,8.326" fill="#000000" fill-rule="nonzero" id="path3228"/>
      </g>
      <g id="g3230" transform="translate(121.062 582.649)">
       <path d="m0,3502.904053c0,-4.478 -3.598,-8.109 -8.036,-8.109c-4.438,0 -8.037,3.631 -8.037,8.109c0,4.479 3.599,8.109 8.037,8.109c4.438,0 8.036,-3.63 8.036,-8.109" fill="#ffffff" fill-rule="nonzero" id="path3232"/>
      </g>
      <g id="g3234" transform="translate(113.657 583.955)">
       <path d="m0,3502.904053c0,-1.362 -1.158,-2.466 -2.586,-2.466c-1.43,0 -2.587,1.104 -2.587,2.466c0,1.361 1.157,2.464 2.587,2.464c1.428,0 2.586,-1.103 2.586,-2.464" fill="#000000" fill-rule="nonzero" id="path3236"/>
      </g>
      <g id="g3238" transform="translate(152.606 558.794)">
       <path d="m0,3502.904053c1.201,0.638 10.213,-24.85 5.765,-43.141c-3.182,-13.086 -5.013,-18.542 -12.437,-25.292c-2.157,-1.961 -2.44,-6.942 -2.44,-6.942c-17.761,-2.487 -23.952,-1.388 -35.01,-0.347c-11.058,1.041 -10.536,6.033 -13.808,7.285c-4.131,1.581 -6.536,-3.87 -17.189,-0.694c-15.127,4.509 -5.72,8.804 -3.782,10.809c22.523,23.284 24.409,44.347 24.409,44.347c15.543,1.835 47.923,10.485 54.492,13.975" fill="#000000" fill-rule="nonzero" id="path3240"/>
      </g>
      <g id="g3242" transform="translate(152.606 558.794)">
       <path d="m0,3502.904053c1.201,0.638 10.213,-24.85 5.765,-43.141c-3.182,-13.086 -5.013,-18.542 -12.437,-25.292c-2.157,-1.961 -2.44,-6.942 -2.44,-6.942c-17.761,-2.487 -23.952,-1.388 -35.01,-0.347c-11.058,1.041 -10.536,6.033 -13.808,7.285c-4.131,1.581 -6.536,-3.87 -17.189,-0.694c-15.127,4.509 -5.72,8.804 -3.782,10.809c22.523,23.284 24.409,44.347 24.409,44.347c15.543,1.835 47.923,10.485 54.492,13.975z" fill="none" id="path3244" stroke="#020202" stroke-miterlimit="4"/>
      </g>
      <g id="g3266" transform="translate(118.367 548.636)">
       <path d="m0,3502.904053c-23.9811,-37.05332 5.69913,-50.38219 37.762,-41.356c0,0 4.588,13.131 3.408,25.051c-2.181,22.029 -7.792,26.365 -7.792,26.365c-6.061,-2.72 -33.378,-10.06 -33.378,-10.06" fill="#ffffff" fill-rule="nonzero" id="path3268"/>
      </g>
      <g fill="#ffd700" id="g3825">
       <g fill="#ffd700" id="g3210" transform="translate(129.963 554.499)">
        <path d="m0,3502.904053l-11.596,-1.7l0,9.237l9.092,1.597l2.504,-9.134z" fill="#ffd700" fill-rule="nonzero" id="path3212"/>
       </g>
       <g fill="#ffd700" id="g3214" transform="translate(146.931 558.741)">
        <path d="m0,3502.904053l-8.938,-2.766l-2.906,9.515l7.348,2.492l4.496,-9.241z" fill="#ffd700" fill-rule="nonzero" id="path3216"/>
       </g>
       <g fill="#ffd700" id="g3218" transform="translate(101.207 548.636)">
        <path d="m0,3502.904053l9.863,1.734l-1.78,9.714l-8.402,-1.388l0.319,-10.06z" fill="#ffd700" fill-rule="nonzero" id="path3220"/>
       </g>
       <g fill="#ffd700" id="g3222" transform="translate(153.807 561.979)">
        <path d="m0,3502.904053l-3.438,-1.896l-3.438,9.88l2.013,1.292l4.863,-9.276z" fill="#ffd700" fill-rule="nonzero" id="path3224"/>
       </g>
       <g fill="#ffd700" id="g3246" transform="translate(83.6748 551.377)">
        <path d="m0,3502.904053l7.219,3.185l1.376,-7.597l-9.283,-2.838l0.688,7.25z" fill="#ffd700" fill-rule="nonzero" id="path3248"/>
       </g>
       <g fill="#ffd700" id="g3250" transform="translate(94.1646 536.224)">
        <path d="m0,3502.904053l-8.104,0l0.541,4.434l9.626,3.468l-2.063,-7.902z" fill="#ffd700" fill-rule="nonzero" id="path3252"/>
       </g>
       <g fill="#ffd700" id="g3254" transform="translate(88.439 523.219)">
        <path d="m0,3502.904053l-9.798,-0.254l5.157,8.463l8.157,0l-3.516,-8.209z" fill="#ffd700" fill-rule="nonzero" id="path3256"/>
       </g>
       <g fill="#ffd700" id="g3258" transform="translate(82.9873 516.374)">
        <path d="m0,3502.904053l-7.959,1.041l-5.988,-7.632l8.018,-1.918l5.929,8.509z" fill="#ffd700" fill-rule="nonzero" id="path3260"/>
       </g>
       <g fill="#ffd700" id="g3262" transform="translate(78.9614 542.912)">
        <path d="m0,3502.904053l-9.921,-6.688l2.724,9.55l7.197,2.862l0,-5.724z" fill="#ffd700" fill-rule="nonzero" id="path3264"/>
       </g>
      </g>
     </g>
    </g>
    <g fill="#000000" font-family="sans-serif" font-size="21.142778px" font-style="normal" font-weight="normal" id="text3859" stroke-width="0.528569">
     <path d="m281.94788,-1156.749571l-3.09708,0l0,-6.44194l-6.03932,0l0,6.44194l-3.09709,0l0,-15.0312l3.09709,0l0,6.09094l6.03932,0l0,-6.09094l3.09708,0l0,15.0312z" fill="#666666" id="path4894" stroke-width="0.528569"/>
     <path d="m284.00228,-1162.437891q0,-1.6621 0.64007,-2.96288q0.64006,-1.30077 1.8376,-2.0131q1.20787,-0.71233 2.7977,-0.71233q2.26088,0 3.68554,1.38336q1.43498,1.38337 1.60016,3.7578l0.0206,0.76395q0,2.57058 -1.43499,4.12945q-1.43498,1.54854 -3.85071,1.54854q-2.41573,0 -3.86103,-1.54854q-1.43499,-1.54855 -1.43499,-4.21204l0.00005,-0.13421zm2.98353,0.2168q0,1.58984 0.59877,2.43637q0.59877,0.83622 1.71372,0.83622q1.08398,0 1.69307,-0.82589q0.6091,-0.83622 0.6091,-2.6635q0,-1.55886 -0.6091,-2.41573q-0.60909,-0.85686 -1.71372,-0.85686q-1.0943,0 -1.69307,0.85686q-0.59877,0.84654 -0.59877,2.63253z" fill="#666666" id="path4896" stroke-width="0.528569"/>
     <path d="m302.49189,-1159.836331q0,-0.54716 -0.54715,-0.85687q-0.53683,-0.32003 -1.73437,-0.56779q-3.98492,-0.83622 -3.98492,-3.38615q0,-1.4866 1.22851,-2.47767q1.23884,-1.00139 3.2313,-1.00139q2.12666,0 3.39647,1.00139q1.28013,1.00139 1.28013,2.60155l-2.98353,0q0,-0.64006 -0.41294,-1.05301q-0.41295,-0.42327 -1.29046,-0.42327q-0.75362,0 -1.16657,0.34068q-0.41294,0.34068 -0.41294,0.86719q0,0.49553 0.46456,0.80524q0.47489,0.29938 1.58984,0.5265q1.11495,0.2168 1.8789,0.49554q2.36411,0.86718 2.36411,3.00417q0,1.5279 -1.3111,2.47767q-1.3111,0.93945 -3.38615,0.93945q-1.40401,0 -2.49832,-0.49553q-1.08398,-0.50586 -1.70339,-1.37305q-0.61942,-0.8775 -0.61942,-1.88922l2.82867,0q0.0413,0.79492 0.58845,1.21819q0.54715,0.42327 1.46595,0.42327q0.85686,0 1.29046,-0.32003q0.44391,-0.33036 0.44391,-0.85686z" fill="#666666" id="path4898" stroke-width="0.528569"/>
     <path d="m310.87467,-1170.665811l0,2.74608l1.90987,0l0,2.18861l-1.90987,0l0,5.57475q0,0.61942 0.23745,0.88783q0.23744,0.26842 0.90847,0.26842q0.49554,0 0.87751,-0.0723l0,2.26088q-0.87751,0.26841 -1.80663,0.26841q-3.13838,0 -3.20032,-3.16935l0,-6.01867l-1.63114,0l0,-2.18861l1.63114,0l0,-2.74608l2.98352,0.00003z" fill="#666666" id="path4900" stroke-width="0.528569"/>
     <path d="m319.58781,-1156.543101q-2.45702,0 -4.00556,-1.50725q-1.53822,-1.50725 -1.53822,-4.01589l0,-0.28906q0,-1.68275 0.65038,-3.00417q0.65039,-1.33175 1.83761,-2.04408q1.19754,-0.72265 2.72543,-0.72265q2.29185,0 3.60295,1.4453q1.32142,1.44531 1.32142,4.09848l0,1.21819l-7.11297,0q0.14453,1.0943 0.86718,1.75501q0.73298,0.66072 1.84793,0.66072q1.72404,0 2.69446,-1.24916l1.46596,1.64145q-0.67104,0.94978 -1.81696,1.48661q-1.14592,0.5265 -2.53961,0.5265zm-0.34068,-9.16738q-0.88783,0 -1.44531,0.59877q-0.54715,0.59877 -0.702,1.71373l4.15009,0l0,-0.23745q-0.0206,-0.99107 -0.53682,-1.52789q-0.51619,-0.54716 -1.46596,-0.54716z" fill="#666666" id="path4902" stroke-width="0.528569"/>
     <path d="m325.42066,-1162.417241q0,-2.61188 1.16657,-4.16042q1.17689,-1.54854 3.21064,-1.54854q1.63113,0 2.69447,1.21818l0,-5.69864l2.99385,0l0,15.85709l-2.69447,0l-0.14453,-1.18722q-1.11495,1.39369 -2.86997,1.39369q-1.97181,0 -3.16935,-1.54854q-1.18721,-1.55887 -1.18721,-4.3256zm2.98352,0.2168q0,1.56919 0.54715,2.4054q0.54716,0.83621 1.58984,0.83621q1.38337,0 1.95117,-1.16657l0,-4.40818q-0.55748,-1.16657 -1.93052,-1.16657q-2.15764,0 -2.15764,3.49971z" fill="#666666" id="path4904" stroke-width="0.528569"/>
     <path d="m353.17055,-1162.231421q0,2.68415 -1.14592,4.1914q-1.14592,1.49692 -3.20033,1.49692q-1.81695,0 -2.90093,-1.39369l-0.13421,1.18722l-2.68414,0l0,-15.85709l2.98352,0l0,5.68832q1.03237,-1.20786 2.71512,-1.20786q2.04407,0 3.20032,1.50725q1.16657,1.49692 1.16657,4.22236l0,0.16517zm-2.98353,-0.21679q0,-1.69308 -0.53683,-2.46735q-0.53682,-0.78459 -1.60016,-0.78459q-1.42466,0 -1.96149,1.16657l0,4.40818q0.54716,1.1769 1.98214,1.1769q1.44531,0 1.89955,-1.42466q0.21679,-0.68136 0.21679,-2.07505z" fill="#666666" id="path4906" stroke-width="0.528569"/>
     <path d="m359.16858,-1160.971931l2.06472,-6.9478l3.20032,0l-4.49077,12.90453l-0.24777,0.58844q-1.00139,2.18861 -3.30356,2.18861q-0.65039,0 -1.32142,-0.19615l0,-2.26087l0.45424,0.0103q0.84653,0 1.25948,-0.25809q0.42327,-0.25809 0.66071,-0.85686l0.351,-0.9188l-3.91265,-11.20113l3.21065,0l2.07505,6.94782z" fill="#666666" id="path4908" stroke-width="0.528569"/>
     <path d="m271.85618,-1145.580051l0,2.74608l1.90987,0l0,2.18861l-1.90987,0l0,5.57476q0,0.61942 0.23745,0.88783q0.23744,0.26841 0.90847,0.26841q0.49554,0 0.87751,-0.0723l0,2.26087q-0.87751,0.26842 -1.80663,0.26842q-3.13838,0 -3.20032,-3.16936l0,-6.01867l-1.63114,0l0,-2.18861l1.63114,0l0,-2.74608l2.98352,0.00004z" fill="#666666" id="path4910" stroke-width="0.528569"/>
     <path d="m278.33942,-1141.615781q1.18721,-1.42466 2.98352,-1.42466q3.63392,0 3.68554,4.22236l0,7.15427l-2.98353,0l0,-7.07168q0,-0.96009 -0.41295,-1.41433q-0.41294,-0.46457 -1.37304,-0.46457q-1.3111,0 -1.89954,1.01172l0,7.93886l-2.98353,0l0,-15.85708l2.98353,0l0,5.90511z" fill="#666666" id="path4912" stroke-width="0.528569"/>
     <path d="m292.42084,-1131.457331q-2.45703,0 -4.00557,-1.50725q-1.53822,-1.50725 -1.53822,-4.01589l0,-0.28906q0,-1.68275 0.65039,-3.00418q0.65039,-1.33174 1.8376,-2.04407q1.19754,-0.72266 2.72544,-0.72266q2.29184,0 3.60295,1.44531q1.32142,1.44531 1.32142,4.09848l0,1.21818l-7.11298,0q0.14453,1.09431 0.86719,1.75502q0.73297,0.66071 1.84793,0.66071q1.72404,0 2.69446,-1.24916l1.46596,1.64146q-0.67104,0.94977 -1.81696,1.4866q-1.14592,0.52651 -2.53961,0.52651zm-0.34068,-9.16738q-0.88783,0 -1.44531,0.59877q-0.54715,0.59877 -0.70201,1.71372l4.1501,0l0,-0.23744q-0.0206,-0.99107 -0.53683,-1.5279q-0.51618,-0.54715 -1.46595,-0.54715z" fill="#666666" id="path4914" stroke-width="0.528569"/>
     <path d="m324.76115,-1138.352761q0,3.55141 -1.25538,6.22736q-1.25538,2.67595 -3.60097,4.12955q-2.32906,1.4536 -5.3519,1.4536q-2.98979,0 -5.33537,-1.43708q-2.34559,-1.43708 -3.63401,-4.09651q-1.28842,-2.67595 -1.30493,-6.14477l0,-1.18931q0,-3.55141 1.2719,-6.24388q1.28842,-2.70899 3.61748,-4.14607q2.34559,-1.4536 5.3519,-1.4536q3.00631,0 5.33538,1.4536q2.34558,1.43708 3.61748,4.14607q1.28842,2.69247 1.28842,6.22736l0,1.07368zm-5.02153,-1.0902q0,-3.78267 -1.35449,-5.74833q-1.3545,-1.96567 -3.86526,-1.96567q-2.49425,0 -3.84874,1.94915q-1.35449,1.93263 -1.37101,5.68226l0,1.17279q0,3.68356 1.35449,5.7153q1.35449,2.03174 3.89829,2.03174q2.49425,0 3.83223,-1.94915q1.33797,-1.96567 1.35449,-5.7153l0,-1.17279z" id="path4916" stroke-width="0.528569"/>
     <path d="m346.37546,-1134.883941q-0.28081,3.88178 -2.87417,6.11174q-2.57684,2.22995 -6.8055,2.22995q-4.62509,0 -7.28452,-3.10542q-2.64292,-3.12194 -2.64292,-8.55642l0,-1.47012q0,-3.46883 1.22235,-6.11174q1.22235,-2.64291 3.48534,-4.04696q2.27951,-1.42056 5.28582,-1.42056q4.16259,0 6.70639,2.22996q2.54381,2.22995 2.94024,6.26039l-4.95546,0q-0.1817,-2.32906 -1.30493,-3.36971q-1.10672,-1.05716 -3.38624,-1.05716q-2.47773,0 -3.71659,1.78396q-1.22235,1.76745 -1.25538,5.50056l0,1.817q0,3.8983 1.17279,5.69878q1.18931,1.80049 3.73311,1.80049q2.29603,0 3.41927,-1.04065q1.13975,-1.05717 1.30494,-3.25409l4.95546,0z" id="path4918" stroke-width="0.528569"/>
     <path d="m363.74948,-1136.700941l-9.51448,0l0,9.82833l-4.95546,0l0,-24.0505l15.65925,0l0,4.01393l-10.70379,0l0,6.21084l9.51448,0l0,3.9974z" id="path4920" stroke-width="0.528569"/>
    </g>
   </g>
  </g>
 </g>
</svg>