<?xml version="1.0" standalone="no"?>
<!DOCTYPE svg PUBLIC "-//W3C//DTD SVG 20010904//EN"
 "http://www.w3.org/TR/2001/REC-SVG-20010904/DTD/svg10.dtd">
<svg version="1.0" xmlns="http://www.w3.org/2000/svg"
 width="1200.000000pt" height="1200.000000pt" viewBox="0 0 1200.000000 1200.000000"
 preserveAspectRatio="xMidYMid meet">
<metadata>
Created by potrace 1.11, written by Peter Selinger 2001-2013
</metadata>
<g transform="translate(0.000000,1200.000000) scale(0.100000,-0.100000)"
fill="#000000" stroke="none">
<path d="M6552 10924 c-253 -78 -286 -429 -50 -550 66 -33 81 -35 401 -37
l284 -2 39 -27 c52 -36 68 -65 119 -217 l42 -128 -1261 1 -1261 1 -20 57 c-10
31 -17 59 -15 61 3 3 37 8 75 12 193 19 290 142 255 325 -20 103 -84 191 -173
235 -65 31 -69 32 -249 50 -29 3 -73 8 -98 10 -25 3 -74 7 -110 10 -63 5 -108
9 -207 20 -27 3 -68 7 -93 9 -25 3 -76 7 -115 11 -179 19 -268 -7 -355 -101
-77 -83 -101 -187 -80 -339 5 -33 11 -84 14 -114 11 -96 26 -134 70 -176 64
-62 93 -67 261 -51 33 4 71 9 85 11 14 3 44 7 66 10 l42 5 46 -142 c45 -138
45 -142 29 -167 -10 -14 -23 -35 -28 -46 -6 -11 -109 -182 -227 -381 -119
-198 -222 -372 -229 -387 -7 -15 -16 -27 -21 -27 -4 0 -8 -4 -8 -9 0 -5 -22
-46 -49 -91 -28 -45 -51 -86 -53 -92 -3 -8 -49 3 -132 31 -127 42 -305 83
-421 96 -91 11 -342 14 -410 5 -33 -5 -84 -11 -114 -14 -252 -29 -580 -154
-826 -316 -60 -40 -112 -75 -115 -79 -3 -3 -32 -28 -65 -55 -210 -173 -398
-413 -525 -671 -56 -115 -142 -352 -154 -425 -3 -19 -8 -46 -11 -60 -3 -14 -8
-41 -11 -60 -4 -19 -8 -44 -10 -55 -17 -92 -23 -350 -11 -480 25 -269 116
-563 244 -790 60 -106 73 -126 130 -204 304 -413 716 -686 1208 -798 133 -30
299 -47 452 -46 191 1 300 15 490 63 567 143 1058 540 1314 1065 96 197 139
330 184 564 2 13 7 26 11 30 3 3 205 6 448 7 476 0 497 2 571 53 22 15 103
101 180 193 77 91 159 187 182 214 89 105 128 151 209 249 32 39 61 72 64 75
3 3 62 73 132 155 149 177 480 569 511 605 12 14 67 79 122 145 55 65 107 126
115 135 8 9 93 110 189 224 113 133 177 202 182 194 3 -7 28 -77 54 -156 l48
-142 -29 -22 c-340 -265 -579 -597 -705 -979 -50 -153 -67 -226 -88 -387 -17
-132 -21 -360 -7 -467 4 -27 8 -65 11 -83 26 -199 110 -458 211 -649 186 -352
488 -657 829 -840 315 -168 623 -246 976 -245 134 0 162 2 309 23 480 69 961
348 1266 734 85 107 93 119 142 198 118 188 217 428 258 627 3 14 9 43 14 65
9 40 15 93 29 235 8 83 6 271 -4 359 -81 708 -504 1309 -1140 1616 -159 77
-341 139 -465 160 -19 3 -42 8 -50 10 -16 5 -55 10 -160 22 -82 10 -313 10
-405 0 -130 -13 -296 -47 -404 -83 -24 -8 -45 -13 -47 -11 -3 3 -153 438 -254
737 -15 47 -85 249 -153 450 -69 201 -139 408 -157 460 -88 257 -224 418 -435
516 -135 62 -204 71 -552 71 -226 0 -319 -3 -351 -13z m986 -1563 c8 -1 -22
-43 -65 -93 -44 -51 -113 -133 -155 -183 -93 -110 -313 -370 -377 -444 -25
-30 -53 -64 -61 -75 -8 -12 -19 -25 -26 -31 -6 -5 -60 -68 -120 -140 -59 -71
-111 -132 -114 -135 -3 -3 -39 -45 -80 -95 -42 -49 -87 -103 -102 -120 -14
-16 -155 -183 -313 -370 -158 -187 -304 -360 -325 -384 l-38 -45 -277 840
c-152 461 -286 866 -296 899 -11 33 -24 69 -29 80 -31 75 -91 288 -82 294 8 4
2388 6 2460 2z m-2767 -1028 c111 -334 249 -753 308 -930 85 -255 104 -323 92
-324 -22 -1 -221 -1 -248 0 -17 1 -23 9 -28 44 -43 262 -161 554 -322 795 -41
61 -78 112 -82 112 -4 0 -14 13 -24 29 -18 31 -201 220 -253 262 l-31 25 186
312 c127 215 188 307 193 298 5 -8 99 -288 209 -623z m-1696 -137 c80 -11 95
-14 180 -36 44 -12 84 -25 88 -29 4 -4 -127 -232 -293 -507 -165 -274 -303
-506 -307 -514 -4 -8 -28 -49 -53 -90 -77 -125 -93 -166 -93 -234 -2 -151 102
-278 248 -303 28 -4 364 -8 748 -7 531 0 697 -2 697 -11 0 -7 -4 -25 -9 -41
-5 -16 -19 -63 -32 -104 -32 -105 -130 -293 -204 -392 -281 -373 -693 -580
-1155 -581 -418 -1 -826 192 -1094 518 -79 95 -76 91 -123 170 -38 65 -80 149
-116 235 -19 44 -53 168 -66 237 -52 270 -26 543 74 793 196 489 630 827 1150
896 28 3 51 7 52 8 5 5 263 -2 308 -8z m6250 -5 c257 -43 480 -143 680 -304
329 -266 524 -666 528 -1084 1 -131 -6 -220 -22 -296 -6 -23 -12 -53 -14 -67
-10 -53 -71 -219 -109 -295 -165 -332 -454 -589 -798 -713 -381 -137 -784
-110 -1145 76 -180 93 -364 250 -486 415 -63 84 -134 206 -163 277 -10 25 -23
56 -29 70 -6 14 -11 27 -12 30 -1 3 -11 37 -22 75 -119 394 -50 847 179 1189
40 59 162 208 192 233 18 16 14 22 69 -118 109 -279 267 -558 459 -809 89
-116 98 -128 215 -258 107 -117 215 -157 340 -123 143 39 239 192 211 340 -15
84 -28 103 -185 273 -57 62 -194 250 -261 358 -105 168 -227 427 -271 575 -7
22 -17 50 -23 63 -7 14 -8 26 -2 31 10 10 100 37 153 46 19 3 37 7 40 9 3 2
35 7 71 11 36 4 66 8 68 10 8 7 275 -4 337 -14z m-5323 -511 c67 -82 152 -220
200 -325 50 -110 95 -264 81 -273 -13 -8 -841 -8 -849 0 -3 4 12 35 34 70 22
34 110 182 197 328 87 146 169 282 182 303 l24 38 38 -38 c21 -21 63 -67 93
-103z"/>
<path d="M2775 4098 c-328 -57 -547 -147 -773 -318 -136 -103 -328 -308 -381
-407 l-12 -23 673 0 673 0 155 -267 c84 -148 198 -344 252 -437 l98 -168 -32
-57 c-61 -108 -238 -416 -248 -431 -5 -8 -25 -42 -42 -74 -18 -32 -38 -66 -43
-75 -6 -9 -39 -67 -75 -128 l-64 -113 -673 0 c-370 0 -673 -3 -673 -7 0 -16
151 -202 220 -271 260 -260 571 -414 940 -467 125 -18 387 -13 500 10 176 34
341 92 480 167 74 39 199 119 223 141 6 7 33 29 60 50 139 112 274 276 382
462 l40 70 1550 0 1550 0 48 -84 c106 -188 271 -375 447 -507 198 -149 412
-242 689 -300 136 -29 449 -25 601 6 654 137 1148 629 1285 1280 23 107 29
178 29 320 1 209 -19 334 -80 520 -139 421 -439 762 -839 955 -164 79 -326
128 -500 152 -73 10 -362 10 -429 0 -511 -76 -951 -374 -1201 -814 l-50 -88
-1549 0 -1549 0 -56 93 c-141 234 -302 407 -511 547 -181 122 -452 229 -634
251 -22 3 -45 8 -50 12 -16 10 -375 10 -431 0z m6778 -788 c35 -63 289 -504
317 -550 62 -102 160 -277 160 -285 0 -4 -27 -54 -59 -109 -32 -56 -70 -121
-84 -146 -14 -25 -99 -173 -190 -330 l-165 -285 -508 0 -508 0 -124 215 c-68
118 -181 314 -251 435 l-127 220 144 250 c262 454 334 580 349 603 l14 22 506
-2 506 -3 20 -35z"/>
</g>
</svg>
